<?xml version="1.0" encoding="iso-8859-1"?>
<!-- Generator: Adobe Illustrator 19.0.0, SVG Export Plug-In . SVG Version: 6.00 Build 0)  -->
<svg version="1.1" id="Capa_1" xmlns="http://www.w3.org/2000/svg" xmlns:xlink="http://www.w3.org/1999/xlink" x="0px" y="0px"
	 viewBox="0 0 512 512" style="enable-background:new 0 0 512 512;" xml:space="preserve">
<g>
	<g>
		<path d="M412.295,344.328c-4.157,0-7.531,3.364-7.531,7.531v24.491c0,38.911-31.651,70.561-70.561,70.561H177.797
			c-38.911,0-70.561-31.651-70.561-70.561c0.7-237.928-1.581-226.471,2.068-241.095c1.004-4.037-1.456-8.124-5.493-9.128
			c-4.037-1.004-8.124,1.446-9.128,5.493c-4.408,17.714-1.675,9.084-2.51,244.73c0,47.215,38.409,85.623,85.623,85.623h156.405
			c47.215,0,85.623-38.409,85.623-85.623v-24.491C419.826,347.692,416.452,344.328,412.295,344.328z"/>
	</g>
</g>
<g>
	<g>
		<path d="M368.324,40.735c-6.537-12.2-19.43-20.525-34.231-20.525H285.16c-10.104-26.951-48.22-26.943-58.321,0h-48.932
			c-14.801,0-27.694,8.324-34.231,20.525c-47.145,6.627-83.535,47.235-83.535,96.187v277.927c0,53.571,43.58,97.151,97.151,97.151
			h143.914c4.157,0,7.531-3.364,7.531-7.531c0-4.157-3.374-7.531-7.531-7.531H157.293c-45.267,0-82.089-36.822-82.089-82.089
			V136.922c0-39.031,27.373-71.786,63.934-80.06c-0.329,5.924,0.684,11.905,3.103,17.532c-13.184,6.055-24.853,15.454-33.639,27.493
			c-2.45,3.364-1.717,8.073,1.647,10.523c3.364,2.45,8.073,1.717,10.523-1.647c7.792-10.684,18.326-18.838,30.225-23.768
			c6.989,6.728,16.478,10.865,26.911,10.865h156.185c10.463,0,19.982-4.167,26.971-10.925c25.626,10.584,43.7,35.848,43.7,65.249
			v169.55c0,4.157,3.374,7.531,7.531,7.531s7.531-3.374,7.531-7.531v-169.55c0-34.522-20.535-64.336-50.036-77.871
			c2.388-5.547,3.402-11.518,3.073-17.452c36.561,8.274,63.934,41.029,63.934,80.06v277.927c0,45.267-36.822,82.089-82.089,82.089
			h-23.376c-4.157,0-7.531,3.374-7.531,7.531c0,4.167,3.374,7.531,7.531,7.531h23.376c53.571,0,97.151-43.58,97.151-97.151V136.922
			C451.858,87.97,415.468,47.362,368.324,40.735z M334.092,82.799H177.908c-12.922,0-23.768-10.497-23.768-23.768
			c0-13.152,10.721-23.758,23.768-23.758h50.067c5.804,0,10.935-3.695,12.763-9.208c4.884-14.675,25.635-14.708,30.526,0.01
			c1.828,5.503,6.959,9.198,12.763,9.198h50.067c11.593,0,21.426,8.395,23.407,19.621C360.076,69.284,348.946,82.799,334.092,82.799
			z"/>
	</g>
</g>
<g>
	<g>
		<path d="M196.612,134.607c-3.182-2.679-7.933-2.271-10.612,0.91l-28.127,33.404l-8.403-10.758
			c-2.561-3.279-7.294-3.862-10.571-1.298c-3.279,2.561-3.86,7.293-1.299,10.571l14.118,18.075c1.398,1.789,3.528,2.852,5.797,2.894
			c0.046,0.001,0.092,0.001,0.139,0.001c2.218,0,4.328-0.98,5.76-2.68l34.108-40.505
			C200.201,142.036,199.794,137.286,196.612,134.607z"/>
	</g>
</g>
<g>
	<g>
		<path d="M367.473,141.039h-152.63c-4.159,0-7.531,3.371-7.531,7.531c0,4.16,3.372,7.531,7.531,7.531h152.63
			c4.159,0,7.531-3.371,7.531-7.531C375.004,144.41,371.632,141.039,367.473,141.039z"/>
	</g>
</g>
<g>
	<g>
		<path d="M367.473,165.139h-152.63c-4.159,0-7.531,3.371-7.531,7.531c0,4.16,3.372,7.531,7.531,7.531h152.63
			c4.159,0,7.531-3.371,7.531-7.531C375.004,168.509,371.632,165.139,367.473,165.139z"/>
	</g>
</g>
<g>
	<g>
		<path d="M196.612,205.901c-3.182-2.679-7.933-2.271-10.612,0.91l-28.127,33.404l-8.403-10.758
			c-2.561-3.279-7.294-3.861-10.571-1.298c-3.279,2.561-3.86,7.293-1.299,10.571l14.118,18.075
			c2.942,3.766,8.614,3.874,11.695,0.215l34.108-40.505C200.201,213.33,199.794,208.58,196.612,205.901z"/>
	</g>
</g>
<g>
	<g>
		<path d="M367.473,212.333h-152.63c-4.159,0-7.531,3.371-7.531,7.531s3.372,7.531,7.531,7.531h152.63
			c4.159,0,7.531-3.371,7.531-7.531S371.632,212.333,367.473,212.333z"/>
	</g>
</g>
<g>
	<g>
		<path d="M367.473,236.433h-152.63c-4.159,0-7.531,3.371-7.531,7.531c0,4.16,3.372,7.531,7.531,7.531h152.63
			c4.159,0,7.531-3.371,7.531-7.531C375.004,239.804,371.632,236.433,367.473,236.433z"/>
	</g>
</g>
<g>
	<g>
		<path d="M196.612,277.195c-3.182-2.678-7.933-2.271-10.612,0.91l-28.127,33.404l-8.403-10.758
			c-2.561-3.279-7.294-3.861-10.571-1.298c-3.279,2.561-3.86,7.293-1.299,10.571l14.118,18.075
			c2.942,3.766,8.614,3.874,11.695,0.215l34.108-40.505C200.201,284.625,199.794,279.874,196.612,277.195z"/>
	</g>
</g>
<g>
	<g>
		<path d="M367.473,283.628h-152.63c-4.159,0-7.531,3.371-7.531,7.531c0,4.16,3.372,7.531,7.531,7.531h152.63
			c4.159,0,7.531-3.371,7.531-7.531C375.004,286.998,371.632,283.628,367.473,283.628z"/>
	</g>
</g>
<g>
	<g>
		<path d="M367.473,307.727h-152.63c-4.159,0-7.531,3.371-7.531,7.531s3.372,7.531,7.531,7.531h152.63
			c4.159,0,7.531-3.371,7.531-7.531S371.632,307.727,367.473,307.727z"/>
	</g>
</g>
<g>
	<g>
		<path d="M196.612,348.489c-3.182-2.679-7.933-2.271-10.612,0.91l-28.127,33.404l-8.403-10.758
			c-2.561-3.279-7.294-3.861-10.571-1.298c-3.279,2.561-3.86,7.293-1.299,10.571l14.118,18.075
			c2.942,3.766,8.614,3.874,11.695,0.215l34.108-40.505C200.201,355.919,199.794,351.168,196.612,348.489z"/>
	</g>
</g>
<g>
	<g>
		<path d="M367.473,354.922h-152.63c-4.159,0-7.531,3.371-7.531,7.531c0,4.16,3.372,7.531,7.531,7.531h152.63
			c4.159,0,7.531-3.371,7.531-7.531C375.004,358.293,371.632,354.922,367.473,354.922z"/>
	</g>
</g>
<g>
	<g>
		<path d="M367.473,379.021h-152.63c-4.159,0-7.531,3.371-7.531,7.531c0,4.16,3.372,7.531,7.531,7.531h152.63
			c4.159,0,7.531-3.371,7.531-7.531C375.004,382.392,371.632,379.021,367.473,379.021z"/>
	</g>
</g>
<g>
</g>
<g>
</g>
<g>
</g>
<g>
</g>
<g>
</g>
<g>
</g>
<g>
</g>
<g>
</g>
<g>
</g>
<g>
</g>
<g>
</g>
<g>
</g>
<g>
</g>
<g>
</g>
<g>
</g>
</svg>
